<svg fill="none" xmlns="http://www.w3.org/2000/svg" xmlns:xlink="http://www.w3.org/1999/xlink" preserveAspectRatio="xMidYMid meet" viewBox="0 0 800 800"><g id="_R_G"><g id="_R_G_L_109_G_N_111_T_0_M"><animate repeatCount="indefinite" dur="3s" begin="0s" fill="freeze" attributeName="opacity" from="0" to="0" keyTimes="0;0.3444444;0.3444456;0.5111111;0.5111111;1" values="0;0;1;1;0;0" keySplines="0 0 0 0;0 0 0 0;0 0 0 0;0 0 0 0;0 0 0 0" calcMode="spline"/><g id="_R_G_L_109_G_N_111_T_0" transform=" translate(400, 400)"><animateTransform repeatCount="indefinite" dur="3s" begin="0s" fill="freeze" attributeName="transform" from="0" to="360" type="rotate" additive="sum" keyTimes="0;0.1555556;0.4777778;0.7333333;1" values="0;0;252.814;360;360" keySplines="0.568 0 0.504 0.498;0.568 0 0.504 0.498;0.346 0.655 0.702 1;0 0 0 0" calcMode="spline"/><animateTransform repeatCount="indefinite" dur="3s" begin="0s" fill="freeze" attributeName="transform" from="2.56417 2.56417" to="2.56417 2.56417" type="scale" additive="sum" keyTimes="0;1" values="2.56417 2.56417;2.56417 2.56417" keySplines="0 0 1 1" calcMode="spline"/><animateTransform repeatCount="indefinite" dur="3s" begin="0s" fill="freeze" attributeName="transform" from="-50 -50" to="-50 -50" type="translate" additive="sum" keyTimes="0;1" values="-50 -50;-50 -50" keySplines="0 0 1 1" calcMode="spline"/><g id="_R_G_L_109_G"><animateMotion repeatCount="indefinite" dur="3s" begin="0s" fill="freeze" keyTimes="0;0.3222222;0.4777778;0.7444444;1" path="M50 50 C50,50 50,50 50,50 C50,50 148.6,48.02 148.6,48.02 C148.6,48.02 25.43,73.4 25.43,73.4 C25.43,73.4 25.43,73.4 25.43,73.4 " keyPoints="0;0;0.44;1;1" keySplines="0.597 0 0.2 1;0.597 0 0.2 1;0.8 0 0.999 1;0 0 0 0" calcMode="spline"/><animateTransform repeatCount="indefinite" dur="3s" begin="0s" fill="freeze" attributeName="transform" from="8" to="186.25" type="rotate" additive="sum" keyTimes="0;0.3222222;0.4777778;0.7444444;1" values="8;8;82;186.25;186.25" keySplines="0.597 0 0.2 1;0.597 0 0.2 1;0.8 0 0.999 1;0 0 0 0" calcMode="spline"/><animateTransform repeatCount="indefinite" dur="3s" begin="0s" fill="freeze" attributeName="transform" from="0 0" to="0 0" type="scale" additive="sum" keyTimes="0;0.3222222;0.4777778;0.7444444;1" values="0 0;0 0;1.7311 0.6457200000000001;0 0;0 0" keySplines="0.597 0 0.2 1;0.597 0 0.2 1;0.8 0 0.999 1;0 0 0 0" calcMode="spline"/><path id="_R_G_L_109_G_D_0_P_0" fill="#000000" fill-opacity="1" fill-rule="nonzero" d=" M0 -35 C7.17,-35 13,-19.32 13,0 C13,19.32 7.17,35 0,35 C-7.17,35 -13,19.32 -13,0 C-13,-19.32 -7.17,-35 0,-35z "/></g></g></g><g id="_R_G_L_108_G_N_111_T_0_M"><animate repeatCount="indefinite" dur="3s" begin="0s" fill="freeze" attributeName="opacity" from="0" to="0" keyTimes="0;0.3444444;0.3444456;0.6777778;0.6777778;1" values="0;0;1;1;0;0" keySplines="0 0 0 0;0 0 0 0;0 0 0 0;0 0 0 0;0 0 0 0" calcMode="spline"/><g id="_R_G_L_108_G_N_111_T_0" transform=" translate(400, 400)"><animateTransform repeatCount="indefinite" dur="3s" begin="0s" fill="freeze" attributeName="transform" from="0" to="360" type="rotate" additive="sum" keyTimes="0;0.1555556;0.4777778;0.7333333;1" values="0;0;252.814;360;360" keySplines="0.568 0 0.504 0.498;0.568 0 0.504 0.498;0.346 0.655 0.702 1;0 0 0 0" calcMode="spline"/><animateTransform repeatCount="indefinite" dur="3s" begin="0s" fill="freeze" attributeName="transform" from="2.56417 2.56417" to="2.56417 2.56417" type="scale" additive="sum" keyTimes="0;1" values="2.56417 2.56417;2.56417 2.56417" keySplines="0 0 1 1" calcMode="spline"/><animateTransform repeatCount="indefinite" dur="3s" begin="0s" fill="freeze" attributeName="transform" from="-50 -50" to="-50 -50" type="translate" additive="sum" keyTimes="0;1" values="-50 -50;-50 -50" keySplines="0 0 1 1" calcMode="spline"/><g id="_R_G_L_108_G"><animateMotion repeatCount="indefinite" dur="3s" begin="0s" fill="freeze" keyTimes="0;0.3;0.4777778;0.7222222;1" path="M50 50 C50,50 50,50 50,50 C50,50 99.29,-33.62 99.29,-33.62 C99.29,-33.62 25.43,73.4 25.43,73.4 C25.43,73.4 25.43,73.4 25.43,73.4 " keyPoints="0;0;0.43;1;1" keySplines="0.597 0 0.2 1;0.597 0 0.2 1;0.8 0 0.999 1;0 0 0 0" calcMode="spline"/><animateTransform repeatCount="indefinite" dur="3s" begin="0s" fill="freeze" attributeName="transform" from="308" to="486.25" type="rotate" additive="sum" keyTimes="0;0.3;0.4777778;0.7222222;1" values="308;308;382;486.25;486.25" keySplines="0.597 0 0.2 1;0.597 0 0.2 1;0.8 0 0.999 1;0 0 0 0" calcMode="spline"/><animateTransform repeatCount="indefinite" dur="3s" begin="0s" fill="freeze" attributeName="transform" from="0 0" to="0 0" type="scale" additive="sum" keyTimes="0;0.3;0.4777778;0.7222222;1" values="0 0;0 0;1.7311 0.6457200000000001;0 0;0 0" keySplines="0.597 0 0.2 1;0.597 0 0.2 1;0.8 0 0.999 1;0 0 0 0" calcMode="spline"/><path id="_R_G_L_108_G_D_0_P_0" fill="#000000" fill-opacity="1" fill-rule="nonzero" d=" M0 -35 C7.17,-35 13,-19.32 13,0 C13,19.32 7.17,35 0,35 C-7.17,35 -13,19.32 -13,0 C-13,-19.32 -7.17,-35 0,-35z "/></g></g></g><g id="_R_G_L_103_G_N_111_T_0_M"><animate repeatCount="indefinite" dur="3s" begin="0s" fill="freeze" attributeName="opacity" from="1" to="0" keyTimes="0;0.1666667;0.1666667;1" values="1;1;0;0" keySplines="0 0 0 0;0 0 0 0;0 0 0 0" calcMode="spline"/><g id="_R_G_L_103_G_N_111_T_0" transform=" translate(400, 400)"><animateTransform repeatCount="indefinite" dur="3s" begin="0s" fill="freeze" attributeName="transform" from="0" to="360" type="rotate" additive="sum" keyTimes="0;0.1555556;0.4777778;0.7333333;1" values="0;0;252.814;360;360" keySplines="0.568 0 0.504 0.498;0.568 0 0.504 0.498;0.346 0.655 0.702 1;0 0 0 0" calcMode="spline"/><animateTransform repeatCount="indefinite" dur="3s" begin="0s" fill="freeze" attributeName="transform" from="2.56417 2.56417" to="2.56417 2.56417" type="scale" additive="sum" keyTimes="0;1" values="2.56417 2.56417;2.56417 2.56417" keySplines="0 0 1 1" calcMode="spline"/><animateTransform repeatCount="indefinite" dur="3s" begin="0s" fill="freeze" attributeName="transform" from="-50 -50" to="-50 -50" type="translate" additive="sum" keyTimes="0;1" values="-50 -50;-50 -50" keySplines="0 0 1 1" calcMode="spline"/><g id="_R_G_L_103_G" transform=" translate(25.944, 73.667) scale(0.38999, 0.38999) translate(0, 0)"><path id="_R_G_L_103_G_D_0_P_0" fill="#000000" fill-opacity="1" fill-rule="nonzero" d=" M-0.25 -320 C26,-320.02 11.06,-200.93 105.98,-106.15 C200.91,-11.37 319.98,-26.49 320,-0.25 C320.02,26 200.93,11.06 106.15,105.98 C11.37,200.91 26.49,319.98 0.25,320 C-26,320.02 -11.06,200.93 -105.98,106.15 C-200.91,11.37 -319.98,26.49 -320,0.25 C-320.02,-26 -200.93,-11.06 -106.15,-105.98 C-11.37,-200.91 -26.49,-319.98 -0.25,-320z "/></g></g></g><g id="_R_G_L_45_G_M"><animate repeatCount="indefinite" dur="3s" begin="0s" fill="freeze" attributeName="opacity" from="1" to="0" keyTimes="0;0.1;0.1;1" values="1;1;0;0" keySplines="0 0 0 0;0 0 0 0;0 0 0 0" calcMode="spline"/><g id="_R_G_L_45_G" transform=" translate(642.247, 157.751) scale(0.42308, 0.42308) translate(0, 0)"><path id="_R_G_L_45_G_D_0_P_0" fill="#000000" fill-opacity="1" fill-rule="nonzero" d=" M0 -320 C49.99,-320 12.78,-229.05 120.92,-120.91 C229.05,-12.78 320,-49.99 320,0 C320,49.99 229.05,12.78 120.92,120.92 C12.78,229.05 49.99,320 0,320 C-49.99,320 -12.78,229.05 -120.91,120.92 C-229.05,12.78 -320,49.99 -320,0 C-320,-49.99 -229.05,-12.78 -120.91,-120.91 C-12.78,-229.05 -49.99,-320 0,-320z "/></g></g><g id="_R_G_L_46_G_N_111_T_0_M"><animate repeatCount="indefinite" dur="3s" begin="0s" fill="freeze" attributeName="opacity" from="0" to="1" keyTimes="0;0.9444444;0.9444456;1" values="0;0;1;1" keySplines="0 0 0 0;0 0 0 0;0 0 0 0" calcMode="spline"/><g id="_R_G_L_46_G_N_111_T_0" transform=" translate(400, 400)"><animateTransform repeatCount="indefinite" dur="3s" begin="0s" fill="freeze" attributeName="transform" from="0" to="360" type="rotate" additive="sum" keyTimes="0;0.1555556;0.4777778;0.7333333;1" values="0;0;252.814;360;360" keySplines="0.568 0 0.504 0.498;0.568 0 0.504 0.498;0.346 0.655 0.702 1;0 0 0 0" calcMode="spline"/><animateTransform repeatCount="indefinite" dur="3s" begin="0s" fill="freeze" attributeName="transform" from="2.56417 2.56417" to="2.56417 2.56417" type="scale" additive="sum" keyTimes="0;1" values="2.56417 2.56417;2.56417 2.56417" keySplines="0 0 1 1" calcMode="spline"/><animateTransform repeatCount="indefinite" dur="3s" begin="0s" fill="freeze" attributeName="transform" from="-50 -50" to="-50 -50" type="translate" additive="sum" keyTimes="0;1" values="-50 -50;-50 -50" keySplines="0 0 1 1" calcMode="spline"/><g id="_R_G_L_46_G" transform=" translate(25.944, 73.667) scale(0.38999, 0.38999) translate(0, 0)"><path id="_R_G_L_46_G_D_0_P_0" fill="#000000" fill-opacity="1" fill-rule="nonzero" d=" M-0.06 -320 C26.19,-320 11.18,-200.92 106.05,-106.08 C200.92,-11.25 320,-26.3 320,-0.06 C320,26.19 200.92,11.18 106.08,106.05 C11.25,200.92 26.3,320 0.06,320 C-26.19,320 -11.18,200.92 -106.05,106.08 C-200.92,11.25 -320,26.3 -320,0.06 C-320,-26.19 -200.92,-11.18 -106.08,-106.05 C-11.25,-200.92 -26.3,-320 -0.06,-320z "/></g></g></g><g id="_R_G_L_0_G_M"><animate repeatCount="indefinite" dur="3s" begin="0s" fill="freeze" attributeName="opacity" from="0" to="1" keyTimes="0;0.9111111;0.9111122;1" values="0;0;1;1" keySplines="0 0 0 0;0 0 0 0;0 0 0 0" calcMode="spline"/><g id="_R_G_L_0_G" transform=" translate(642.247, 157.751) scale(0.42308, 0.42308) translate(0, 0)"><path id="_R_G_L_0_G_D_0_P_0" fill="#000000" fill-opacity="1" fill-rule="nonzero" d=" M0 -320 C49.99,-320 12.78,-229.05 120.92,-120.91 C229.05,-12.78 320,-49.99 320,0 C320,49.99 229.05,12.78 120.92,120.92 C12.78,229.05 49.99,320 0,320 C-49.99,320 -12.78,229.05 -120.91,120.92 C-229.05,12.78 -320,49.99 -320,0 C-320,-49.99 -229.05,-12.78 -120.91,-120.91 C-12.78,-229.05 -49.99,-320 0,-320z "/></g></g></g><g id="time_group"><animate attributeType="XML" attributeName="opacity" dur="3s" from="0" to="1" /></g></svg>
