<svg xmlns="http://www.w3.org/2000/svg" xmlns:xlink="http://www.w3.org/1999/xlink" preserveAspectRatio="xMidYMid meet" viewBox="0 0 150 150">
  <defs>
    <animateTransform repeatCount="indefinite" dur="1.6s" begin="0s" xlink:href="#_R_G_L_0_G_L_2_G" fill="freeze" attributeName="transform" from="10 6.1957" to="10 6.1957" type="scale" additive="sum" keyTimes="0;0.25;0.75;1" values="10 6.1957;10 7;10 2;10 6.1957" keySplines="0.265 0 0.593 1;0.8 0 0.833 1;0.001 0 0.223 1" calcMode="spline" />
    <animateTransform repeatCount="indefinite" dur="1.6s" begin="0s" xlink:href="#_R_G_L_0_G_L_2_G" fill="freeze" attributeName="transform" from="0.379 1.125" to="0.379 1.125" type="translate" additive="sum" keyTimes="0;0.25;1" values="0.379 1.125;0.379 1.125;0.379 1.125" keySplines="0 0 1 1;0 0 0 0" calcMode="spline" />
    <animateTransform repeatCount="indefinite" dur="1.6s" begin="0s" xlink:href="#_R_G_L_0_G_L_1_G" fill="freeze" attributeName="transform" from="10 6.61674" to="10 6.61674" type="scale" additive="sum" keyTimes="0;0.375;0.875;1" values="10 6.61674;10 10;10 2;10 6.61674" keySplines="0.205 0 0.522 1;0.8 0 0.833 1;0.002 0 0.245 1" calcMode="spline" />
    <animateTransform repeatCount="indefinite" dur="1.6s" begin="0s" xlink:href="#_R_G_L_0_G_L_1_G" fill="freeze" attributeName="transform" from="0.379 1.125" to="0.379 1.125" type="translate" additive="sum" keyTimes="0;0.25;1" values="0.379 1.125;0.379 1.125;0.379 1.125" keySplines="0 0 1 1;0 0 0 0" calcMode="spline" />
    <animateTransform repeatCount="indefinite" dur="1.6s" begin="0s" xlink:href="#_R_G_L_0_G_L_0_G" fill="freeze" attributeName="transform" from="10 2" to="10 2" type="scale" additive="sum" keyTimes="0;0.5;1" values="10 2;10 7;10 2" keySplines="0.001 0 0.2 1;0.8 0 0.833 1" calcMode="spline" />
    <animateTransform repeatCount="indefinite" dur="1.6s" begin="0s" xlink:href="#_R_G_L_0_G_L_0_G" fill="freeze" attributeName="transform" from="0.379 1.125" to="0.379 1.125" type="translate" additive="sum" keyTimes="0;0.25;1" values="0.379 1.125;0.379 1.125;0.379 1.125" keySplines="0 0 1 1;0 0 0 0" calcMode="spline" />
    <animate attributeType="XML" attributeName="opacity" dur="2s" from="0" to="1" xlink:href="#time_group" />
  </defs>
  <g id="_R_G">
    <g id="_R_G_L_0_G">
      <g id="_R_G_L_0_G_L_3_G" transform=" translate(75, 75) scale(10, 10) translate(0, 0)">
        <path id="_R_G_L_0_G_L_3_G_D_0_P_0" fill-opacity="1" fill-rule="nonzero" d=" M-4.88 4.28 C-4.88,4.28 -4.88,7.5 -4.88,7.5 C-4.88,7.5 -3.38,7.5 -3.38,7.5 C-3.38,7.5 -3.38,3.6 -3.38,3.6 C-3.38,3.6 -3.87,3.15 -3.87,3.15 C-4.43,2.63 -4.86,2.03 -5.17,1.35 C-5.48,0.68 -5.63,-0.04 -5.63,-0.79 C-5.63,-2.24 -5.12,-3.47 -4.09,-4.48 C-3.07,-5.49 -1.83,-6 -0.38,-6 C0.83,-6 1.91,-5.64 2.85,-4.93 C3.78,-4.22 4.39,-3.29 4.68,-2.16 C4.68,-2.16 5.4,0.75 5.4,0.75 C5.4,0.75 3.37,0.75 3.37,0.75 C3.37,0.75 3.37,4.5 3.37,4.5 C3.37,4.5 0.37,4.5 0.37,4.5 C0.37,4.5 0.37,7.5 0.37,7.5 C0.37,7.5 1.87,7.5 1.87,7.5 C1.87,7.5 1.87,6 1.87,6 C1.87,6 3.37,6 3.37,6 C3.78,6 4.14,5.85 4.43,5.56 C4.72,5.27 4.87,4.91 4.87,4.5 C4.87,4.5 4.87,2.25 4.87,2.25 C4.87,2.25 6.37,2.25 6.37,2.25 C6.62,2.25 6.82,2.15 6.97,1.96 C7.12,1.77 7.16,1.55 7.1,1.31 C7.1,1.31 6.13,-2.53 6.13,-2.53 C5.76,-4.01 4.98,-5.2 3.77,-6.12 C2.57,-7.04 1.18,-7.5 -0.38,-7.5 C-2.25,-7.5 -3.85,-6.84 -5.16,-5.53 C-6.47,-4.22 -7.13,-2.62 -7.13,-0.75 C-7.13,0.21 -6.93,1.13 -6.54,2 C-6.14,2.87 -5.59,3.63 -4.88,4.28z " />
      </g>
      <g id="_R_G_L_0_G_L_2_G" transform=" translate(48.456, 63.75)">
        <path id="_R_G_L_0_G_L_2_G_D_0_P_0" fill-opacity="1" fill-rule="nonzero" d=" M0.37 1.5 C0.37,1.5 -1.13,1.5 -1.13,1.5 C-1.13,1.5 -1.13,-3.75 -1.13,-3.75 C-1.13,-3.75 0.37,-3.75 0.37,-3.75 C0.37,-3.75 0.37,1.5 0.37,1.5z " />
      </g>
      <g id="_R_G_L_0_G_L_1_G" transform=" translate(71.206, 63.75)">
        <path id="_R_G_L_0_G_L_1_G_D_0_P_0" fill-opacity="1" fill-rule="nonzero" d=" M0.37 1.5 C0.37,1.5 -1.13,1.5 -1.13,1.5 C-1.13,1.5 -1.13,-3.75 -1.13,-3.75 C-1.13,-3.75 0.37,-3.75 0.37,-3.75 C0.37,-3.75 0.37,1.5 0.37,1.5z " />
      </g>
      <g id="_R_G_L_0_G_L_0_G" transform=" translate(93.656, 63.75)">
        <path id="_R_G_L_0_G_L_0_G_D_0_P_0" fill-opacity="1" fill-rule="nonzero" d=" M0.37 1.5 C0.37,1.5 -1.13,1.5 -1.13,1.5 C-1.13,1.5 -1.13,-3.75 -1.13,-3.75 C-1.13,-3.75 0.37,-3.75 0.37,-3.75 C0.37,-3.75 0.37,1.5 0.37,1.5z " />
      </g>
    </g>
  </g>
  <g id="time_group" />
</svg>